<svg xmlns="http://www.w3.org/2000/svg" xmlns:xlink="http://www.w3.org/1999/xlink" contentStyleType="text/css" height="719px" preserveAspectRatio="none" style="width:869px;height:719px;background:#FFFFFF;" version="1.1" viewBox="0 0 869 719" width="869px" zoomAndPan="magnify"><defs/><g><!--class AWeapon--><g id="elem_AWeapon"><rect codeLine="1" fill="#F1F1F1" height="194.6719" id="AWeapon" rx="2.5" ry="2.5" style="stroke:#181818;stroke-width:0.5;" width="198.3545" x="296.51" y="311.27"/><ellipse cx="357.9685" cy="327.27" fill="#A9DCDF" rx="11" ry="11" style="stroke:#181818;stroke-width:1.0;"/><path d="M358.0779,322.6138 L356.9216,327.6919 L359.2497,327.6919 L358.0779,322.6138 Z M356.5935,320.3794 L359.5779,320.3794 L362.9372,332.77 L360.4841,332.77 L359.7185,329.7075 L356.4372,329.7075 L355.6872,332.77 L353.2497,332.77 L356.5935,320.3794 Z " fill="#000000"/><text fill="#000000" font-family="sans-serif" font-size="14" font-style="italic" lengthAdjust="spacing" textLength="66.9375" x="378.4685" y="332.1167">AWeapon</text><line style="stroke:#181818;stroke-width:0.5;" x1="297.51" x2="493.8645" y1="343.27" y2="343.27"/><rect fill="none" height="6" style="stroke:#C82930;stroke-width:1.0;" width="6" x="304.51" y="353.9184"/><text fill="#000000" font-family="sans-serif" font-size="14" lengthAdjust="spacing" textLength="97.9521" x="316.51" y="360.2651">sName: string</text><rect fill="none" height="6" style="stroke:#C82930;stroke-width:1.0;" width="6" x="304.51" y="370.2153"/><text fill="#000000" font-family="sans-serif" font-size="14" lengthAdjust="spacing" textLength="78.8184" x="316.51" y="376.562">iApcost: int</text><rect fill="none" height="6" style="stroke:#C82930;stroke-width:1.0;" width="6" x="304.51" y="386.5122"/><text fill="#000000" font-family="sans-serif" font-size="14" lengthAdjust="spacing" textLength="90.3848" x="316.51" y="392.8589">iDamage: int</text><line style="stroke:#181818;stroke-width:0.5;" x1="297.51" x2="493.8645" y1="400.1606" y2="400.1606"/><ellipse cx="307.51" cy="413.8091" fill="#84BE84" rx="3" ry="3" style="stroke:#038048;stroke-width:1.0;"/><text fill="#000000" font-family="sans-serif" font-size="14" lengthAdjust="spacing" textLength="172.3545" x="316.51" y="417.1557">AWeapon(string, int, int)</text><ellipse cx="307.51" cy="430.1059" fill="#84BE84" rx="3" ry="3" style="stroke:#038048;stroke-width:1.0;"/><text fill="#000000" font-family="sans-serif" font-size="14" lengthAdjust="spacing" textLength="89.5918" x="316.51" y="433.4526">~AWeapon()</text><ellipse cx="307.51" cy="446.4028" fill="#84BE84" rx="3" ry="3" style="stroke:#038048;stroke-width:1.0;"/><text fill="#000000" font-family="sans-serif" font-size="14" lengthAdjust="spacing" textLength="124.5713" x="316.51" y="449.7495">getName(): string</text><ellipse cx="307.51" cy="462.6997" fill="#84BE84" rx="3" ry="3" style="stroke:#038048;stroke-width:1.0;"/><text fill="#000000" font-family="sans-serif" font-size="14" lengthAdjust="spacing" textLength="110.4756" x="316.51" y="466.0464">getAPCost(): int</text><ellipse cx="307.51" cy="478.9966" fill="#84BE84" rx="3" ry="3" style="stroke:#038048;stroke-width:1.0;"/><text fill="#000000" font-family="sans-serif" font-size="14" lengthAdjust="spacing" textLength="120.4082" x="316.51" y="482.3432">getDamage(): int</text><ellipse cx="307.51" cy="495.2934" fill="#84BE84" rx="3" ry="3" style="stroke:#038048;stroke-width:1.0;"/><text fill="#000000" font-family="sans-serif" font-size="14" lengthAdjust="spacing" textLength="94.6572" x="316.51" y="498.6401">Attack(): void</text></g><!--class Character--><g id="elem_Character"><rect codeLine="13" fill="#F1F1F1" height="227.2656" id="Character" rx="2.5" ry="2.5" style="stroke:#181818;stroke-width:0.5;" width="200.3779" x="407.5" y="7"/><ellipse cx="468.8799" cy="23" fill="#ADD1B2" rx="11" ry="11" style="stroke:#181818;stroke-width:1.0;"/><path d="M471.8486,28.6406 Q471.2705,28.9375 470.6299,29.0781 Q469.9893,29.2344 469.2861,29.2344 Q466.7861,29.2344 465.458,27.5938 Q464.1455,25.9375 464.1455,22.8125 Q464.1455,19.6875 465.458,18.0313 Q466.7861,16.375 469.2861,16.375 Q469.9893,16.375 470.6299,16.5313 Q471.2861,16.6875 471.8486,16.9844 L471.8486,19.7031 Q471.2236,19.125 470.6299,18.8594 Q470.0361,18.5781 469.4111,18.5781 Q468.0674,18.5781 467.3799,19.6563 Q466.6924,20.7188 466.6924,22.8125 Q466.6924,24.9063 467.3799,25.9844 Q468.0674,27.0469 469.4111,27.0469 Q470.0361,27.0469 470.6299,26.7813 Q471.2236,26.5 471.8486,25.9219 L471.8486,28.6406 Z " fill="#000000"/><text fill="#000000" font-family="sans-serif" font-size="14" lengthAdjust="spacing" textLength="69.1182" x="489.3799" y="27.8467">Character</text><line style="stroke:#181818;stroke-width:0.5;" x1="408.5" x2="606.8779" y1="39" y2="39"/><rect fill="none" height="6" style="stroke:#C82930;stroke-width:1.0;" width="6" x="415.5" y="49.6484"/><text fill="#000000" font-family="sans-serif" font-size="14" lengthAdjust="spacing" textLength="97.9521" x="427.5" y="55.9951">sName: string</text><rect fill="none" height="6" style="stroke:#C82930;stroke-width:1.0;" width="6" x="415.5" y="65.9453"/><text fill="#000000" font-family="sans-serif" font-size="14" lengthAdjust="spacing" textLength="49.3281" x="427.5" y="72.292">iAP: int</text><rect fill="none" height="6" style="stroke:#C82930;stroke-width:1.0;" width="6" x="415.5" y="82.2422"/><text fill="#000000" font-family="sans-serif" font-size="14" lengthAdjust="spacing" textLength="140.4648" x="427.5" y="88.5889">Weapon: AWeapon*</text><line style="stroke:#181818;stroke-width:0.5;" x1="408.5" x2="606.8779" y1="95.8906" y2="95.8906"/><ellipse cx="418.5" cy="109.5391" fill="#84BE84" rx="3" ry="3" style="stroke:#038048;stroke-width:1.0;"/><text fill="#000000" font-family="sans-serif" font-size="14" lengthAdjust="spacing" textLength="120.2305" x="427.5" y="112.8857">Character(string)</text><ellipse cx="418.5" cy="125.8359" fill="#84BE84" rx="3" ry="3" style="stroke:#038048;stroke-width:1.0;"/><text fill="#000000" font-family="sans-serif" font-size="14" lengthAdjust="spacing" textLength="91.7725" x="427.5" y="129.1826">~Character()</text><ellipse cx="418.5" cy="142.1328" fill="#84BE84" rx="3" ry="3" style="stroke:#038048;stroke-width:1.0;"/><text fill="#000000" font-family="sans-serif" font-size="14" lengthAdjust="spacing" textLength="121.0234" x="427.5" y="145.4795">recoverAP(): void</text><ellipse cx="418.5" cy="158.4297" fill="#84BE84" rx="3" ry="3" style="stroke:#038048;stroke-width:1.0;"/><text fill="#000000" font-family="sans-serif" font-size="14" lengthAdjust="spacing" textLength="162.8047" x="427.5" y="161.7764">equip(AWeapon*): void</text><ellipse cx="418.5" cy="174.7266" fill="#84BE84" rx="3" ry="3" style="stroke:#038048;stroke-width:1.0;"/><text fill="#000000" font-family="sans-serif" font-size="14" lengthAdjust="spacing" textLength="148.9141" x="427.5" y="178.0732">attack(Enemy*): void</text><ellipse cx="418.5" cy="191.0234" fill="#84BE84" rx="3" ry="3" style="stroke:#038048;stroke-width:1.0;"/><text fill="#000000" font-family="sans-serif" font-size="14" lengthAdjust="spacing" textLength="124.5713" x="427.5" y="194.3701">getName(): string</text><ellipse cx="418.5" cy="207.3203" fill="#84BE84" rx="3" ry="3" style="stroke:#038048;stroke-width:1.0;"/><text fill="#000000" font-family="sans-serif" font-size="14" lengthAdjust="spacing" textLength="79.3516" x="427.5" y="210.667">getAP(): int</text><ellipse cx="418.5" cy="223.6172" fill="#84BE84" rx="3" ry="3" style="stroke:#038048;stroke-width:1.0;"/><text fill="#000000" font-family="sans-serif" font-size="14" lengthAdjust="spacing" textLength="174.3779" x="427.5" y="226.9639">getWeapon(): AWeapon*</text></g><!--class Enemy--><g id="elem_Enemy"><rect codeLine="27" fill="#F1F1F1" height="162.0781" id="Enemy" rx="2.5" ry="2.5" style="stroke:#181818;stroke-width:0.5;" width="183.835" x="529.77" y="327.56"/><ellipse cx="593.31" cy="343.56" fill="#ADD1B2" rx="11" ry="11" style="stroke:#181818;stroke-width:1.0;"/><path d="M596.2788,349.2006 Q595.7007,349.4975 595.06,349.6381 Q594.4194,349.7944 593.7163,349.7944 Q591.2163,349.7944 589.8882,348.1538 Q588.5757,346.4975 588.5757,343.3725 Q588.5757,340.2475 589.8882,338.5913 Q591.2163,336.935 593.7163,336.935 Q594.4194,336.935 595.06,337.0913 Q595.7163,337.2475 596.2788,337.5444 L596.2788,340.2631 Q595.6538,339.685 595.06,339.4194 Q594.4663,339.1381 593.8413,339.1381 Q592.4975,339.1381 591.81,340.2163 Q591.1225,341.2788 591.1225,343.3725 Q591.1225,345.4663 591.81,346.5444 Q592.4975,347.6069 593.8413,347.6069 Q594.4663,347.6069 595.06,347.3413 Q595.6538,347.06 596.2788,346.4819 L596.2788,349.2006 Z " fill="#000000"/><text fill="#000000" font-family="sans-serif" font-size="14" lengthAdjust="spacing" textLength="48.2549" x="613.81" y="348.4067">Enemy</text><line style="stroke:#181818;stroke-width:0.5;" x1="530.77" x2="712.605" y1="359.56" y2="359.56"/><rect fill="none" height="6" style="stroke:#C82930;stroke-width:1.0;" width="6" x="537.77" y="370.2084"/><text fill="#000000" font-family="sans-serif" font-size="14" lengthAdjust="spacing" textLength="50.7227" x="549.77" y="376.5551">iHp: int</text><rect fill="none" height="6" style="stroke:#C82930;stroke-width:1.0;" width="6" x="537.77" y="386.5053"/><text fill="#000000" font-family="sans-serif" font-size="14" lengthAdjust="spacing" textLength="90.9863" x="549.77" y="392.852">sType: string</text><line style="stroke:#181818;stroke-width:0.5;" x1="530.77" x2="712.605" y1="400.1538" y2="400.1538"/><ellipse cx="540.77" cy="413.8022" fill="#84BE84" rx="3" ry="3" style="stroke:#038048;stroke-width:1.0;"/><text fill="#000000" font-family="sans-serif" font-size="14" lengthAdjust="spacing" textLength="126.5195" x="549.77" y="417.1489">Enemy(int, string)</text><ellipse cx="540.77" cy="430.0991" fill="#84BE84" rx="3" ry="3" style="stroke:#038048;stroke-width:1.0;"/><text fill="#000000" font-family="sans-serif" font-size="14" lengthAdjust="spacing" textLength="70.9092" x="549.77" y="433.4457">~Enemy()</text><ellipse cx="540.77" cy="446.3959" fill="#84BE84" rx="3" ry="3" style="stroke:#038048;stroke-width:1.0;"/><text fill="#000000" font-family="sans-serif" font-size="14" lengthAdjust="spacing" textLength="117.6055" x="549.77" y="449.7426">getType(): string</text><ellipse cx="540.77" cy="462.6928" fill="#84BE84" rx="3" ry="3" style="stroke:#038048;stroke-width:1.0;"/><text fill="#000000" font-family="sans-serif" font-size="14" lengthAdjust="spacing" textLength="80.3018" x="549.77" y="466.0395">getHP(): int</text><ellipse cx="540.77" cy="478.9897" fill="#84BE84" rx="3" ry="3" style="stroke:#038048;stroke-width:1.0;"/><text fill="#000000" font-family="sans-serif" font-size="14" lengthAdjust="spacing" textLength="157.835" x="549.77" y="482.3364">takeDamage(int): void</text></g><!--class PlasmaRifle--><g id="elem_PlasmaRifle"><rect codeLine="37" fill="#F1F1F1" height="145.7813" id="PlasmaRifle" rx="2.5" ry="2.5" style="stroke:#181818;stroke-width:0.5;" width="243.3828" x="7" y="566.94"/><ellipse cx="83.7061" cy="582.94" fill="#ADD1B2" rx="11" ry="11" style="stroke:#181818;stroke-width:1.0;"/><path d="M86.6748,588.5806 Q86.0967,588.8775 85.4561,589.0181 Q84.8154,589.1744 84.1123,589.1744 Q81.6123,589.1744 80.2842,587.5338 Q78.9717,585.8775 78.9717,582.7525 Q78.9717,579.6275 80.2842,577.9713 Q81.6123,576.315 84.1123,576.315 Q84.8154,576.315 85.4561,576.4713 Q86.1123,576.6275 86.6748,576.9244 L86.6748,579.6431 Q86.0498,579.065 85.4561,578.7994 Q84.8623,578.5181 84.2373,578.5181 Q82.8936,578.5181 82.2061,579.5963 Q81.5186,580.6588 81.5186,582.7525 Q81.5186,584.8463 82.2061,585.9244 Q82.8936,586.9869 84.2373,586.9869 Q84.8623,586.9869 85.4561,586.7213 Q86.0498,586.44 86.6748,585.8619 L86.6748,588.5806 Z " fill="#000000"/><text fill="#000000" font-family="sans-serif" font-size="14" lengthAdjust="spacing" textLength="81.4707" x="104.2061" y="587.7867">PlasmaRifle</text><line style="stroke:#181818;stroke-width:0.5;" x1="8" x2="249.3828" y1="598.94" y2="598.94"/><rect fill="none" height="6" style="stroke:#C82930;stroke-width:1.0;" width="6" x="15" y="609.5884"/><text fill="#000000" font-family="sans-serif" font-size="14" lengthAdjust="spacing" textLength="217.3828" x="27" y="615.9351">sName: string = "Plasma Rifle"</text><rect fill="none" height="6" style="stroke:#C82930;stroke-width:1.0;" width="6" x="15" y="625.8853"/><text fill="#000000" font-family="sans-serif" font-size="14" lengthAdjust="spacing" textLength="108.3564" x="27" y="632.232">iApcost: int = 5</text><rect fill="none" height="6" style="stroke:#C82930;stroke-width:1.0;" width="6" x="15" y="642.1822"/><text fill="#000000" font-family="sans-serif" font-size="14" lengthAdjust="spacing" textLength="128.8301" x="27" y="648.5289">iDamage: int = 21</text><line style="stroke:#181818;stroke-width:0.5;" x1="8" x2="249.3828" y1="655.8306" y2="655.8306"/><ellipse cx="18" cy="669.4791" fill="#84BE84" rx="3" ry="3" style="stroke:#038048;stroke-width:1.0;"/><text fill="#000000" font-family="sans-serif" font-size="14" lengthAdjust="spacing" textLength="92.3945" x="27" y="672.8257">PlasmaRifle()</text><ellipse cx="18" cy="685.7759" fill="#84BE84" rx="3" ry="3" style="stroke:#038048;stroke-width:1.0;"/><text fill="#000000" font-family="sans-serif" font-size="14" lengthAdjust="spacing" textLength="104.125" x="27" y="689.1226">~PlasmaRifle()</text><ellipse cx="18" cy="702.0728" fill="#84BE84" rx="3" ry="3" style="stroke:#038048;stroke-width:1.0;"/><text fill="#000000" font-family="sans-serif" font-size="14" lengthAdjust="spacing" textLength="93.6592" x="27" y="705.4195">attack(): void</text></g><!--class PowerFist--><g id="elem_PowerFist"><rect codeLine="46" fill="#F1F1F1" height="145.7813" id="PowerFist" rx="2.5" ry="2.5" style="stroke:#181818;stroke-width:0.5;" width="229.4648" x="284.96" y="566.94"/><ellipse cx="361.6661" cy="582.94" fill="#ADD1B2" rx="11" ry="11" style="stroke:#181818;stroke-width:1.0;"/><path d="M364.6348,588.5806 Q364.0567,588.8775 363.4161,589.0181 Q362.7754,589.1744 362.0723,589.1744 Q359.5723,589.1744 358.2442,587.5338 Q356.9317,585.8775 356.9317,582.7525 Q356.9317,579.6275 358.2442,577.9713 Q359.5723,576.315 362.0723,576.315 Q362.7754,576.315 363.4161,576.4713 Q364.0723,576.6275 364.6348,576.9244 L364.6348,579.6431 Q364.0098,579.065 363.4161,578.7994 Q362.8223,578.5181 362.1973,578.5181 Q360.8536,578.5181 360.1661,579.5963 Q359.4786,580.6588 359.4786,582.7525 Q359.4786,584.8463 360.1661,585.9244 Q360.8536,586.9869 362.1973,586.9869 Q362.8223,586.9869 363.4161,586.7213 Q364.0098,586.44 364.6348,585.8619 L364.6348,588.5806 Z " fill="#000000"/><text fill="#000000" font-family="sans-serif" font-size="14" lengthAdjust="spacing" textLength="67.5527" x="382.1661" y="587.7867">PowerFist</text><line style="stroke:#181818;stroke-width:0.5;" x1="285.96" x2="513.4248" y1="598.94" y2="598.94"/><rect fill="none" height="6" style="stroke:#C82930;stroke-width:1.0;" width="6" x="292.96" y="609.5884"/><text fill="#000000" font-family="sans-serif" font-size="14" lengthAdjust="spacing" textLength="203.4648" x="304.96" y="615.9351">sName: string = "Power Fist"</text><rect fill="none" height="6" style="stroke:#C82930;stroke-width:1.0;" width="6" x="292.96" y="625.8853"/><text fill="#000000" font-family="sans-serif" font-size="14" lengthAdjust="spacing" textLength="108.3564" x="304.96" y="632.232">iApcost: int = 8</text><rect fill="none" height="6" style="stroke:#C82930;stroke-width:1.0;" width="6" x="292.96" y="642.1822"/><text fill="#000000" font-family="sans-serif" font-size="14" lengthAdjust="spacing" textLength="128.8301" x="304.96" y="648.5289">iDamage: int = 50</text><line style="stroke:#181818;stroke-width:0.5;" x1="285.96" x2="513.4248" y1="655.8306" y2="655.8306"/><ellipse cx="295.96" cy="669.4791" fill="#84BE84" rx="3" ry="3" style="stroke:#038048;stroke-width:1.0;"/><text fill="#000000" font-family="sans-serif" font-size="14" lengthAdjust="spacing" textLength="78.4766" x="304.96" y="672.8257">PowerFist()</text><ellipse cx="295.96" cy="685.7759" fill="#84BE84" rx="3" ry="3" style="stroke:#038048;stroke-width:1.0;"/><text fill="#000000" font-family="sans-serif" font-size="14" lengthAdjust="spacing" textLength="90.207" x="304.96" y="689.1226">~PowerFist()</text><ellipse cx="295.96" cy="702.0728" fill="#84BE84" rx="3" ry="3" style="stroke:#038048;stroke-width:1.0;"/><text fill="#000000" font-family="sans-serif" font-size="14" lengthAdjust="spacing" textLength="93.6592" x="304.96" y="705.4195">attack(): void</text></g><!--class RadScorpion--><g id="elem_RadScorpion"><rect codeLine="55" fill="#F1F1F1" height="129.4844" id="RadScorpion" rx="2.5" ry="2.5" style="stroke:#181818;stroke-width:0.5;" width="136.9678" x="551.21" y="575.09"/><ellipse cx="573.7044" cy="591.09" fill="#ADD1B2" rx="11" ry="11" style="stroke:#181818;stroke-width:1.0;"/><path d="M576.6732,596.7306 Q576.0951,597.0275 575.4544,597.1681 Q574.8138,597.3244 574.1107,597.3244 Q571.6107,597.3244 570.2826,595.6838 Q568.9701,594.0275 568.9701,590.9025 Q568.9701,587.7775 570.2826,586.1213 Q571.6107,584.465 574.1107,584.465 Q574.8138,584.465 575.4544,584.6213 Q576.1107,584.7775 576.6732,585.0744 L576.6732,587.7931 Q576.0482,587.215 575.4544,586.9494 Q574.8607,586.6681 574.2357,586.6681 Q572.8919,586.6681 572.2044,587.7463 Q571.5169,588.8088 571.5169,590.9025 Q571.5169,592.9963 572.2044,594.0744 Q572.8919,595.1369 574.2357,595.1369 Q574.8607,595.1369 575.4544,594.8713 Q576.0482,594.59 576.6732,594.0119 L576.6732,596.7306 Z " fill="#000000"/><text fill="#000000" font-family="sans-serif" font-size="14" lengthAdjust="spacing" textLength="88.3135" x="589.3699" y="595.9367">RadScorpion</text><line style="stroke:#181818;stroke-width:0.5;" x1="552.21" x2="687.1778" y1="607.09" y2="607.09"/><rect fill="none" height="6" style="stroke:#C82930;stroke-width:1.0;" width="6" x="559.21" y="617.7384"/><text fill="#000000" font-family="sans-serif" font-size="14" lengthAdjust="spacing" textLength="50.7227" x="571.21" y="624.0851">iHp: int</text><rect fill="none" height="6" style="stroke:#C82930;stroke-width:1.0;" width="6" x="559.21" y="634.0353"/><text fill="#000000" font-family="sans-serif" font-size="14" lengthAdjust="spacing" textLength="90.9863" x="571.21" y="640.382">sType: string</text><line style="stroke:#181818;stroke-width:0.5;" x1="552.21" x2="687.1778" y1="647.6838" y2="647.6838"/><ellipse cx="562.21" cy="661.3322" fill="#84BE84" rx="3" ry="3" style="stroke:#038048;stroke-width:1.0;"/><text fill="#000000" font-family="sans-serif" font-size="14" lengthAdjust="spacing" textLength="99.2373" x="571.21" y="664.6789">RadScorpion()</text><ellipse cx="562.21" cy="677.6291" fill="#84BE84" rx="3" ry="3" style="stroke:#038048;stroke-width:1.0;"/><text fill="#000000" font-family="sans-serif" font-size="14" lengthAdjust="spacing" textLength="110.9678" x="571.21" y="680.9757">~RadScorpion()</text><ellipse cx="562.21" cy="693.9259" fill="#84BE84" rx="3" ry="3" style="stroke:#038048;stroke-width:1.0;"/><text fill="#000000" font-family="sans-serif" font-size="14" lengthAdjust="spacing" textLength="94.6572" x="571.21" y="697.2726">Attack(): void</text></g><!--class SuperMutant--><g id="elem_SuperMutant"><rect codeLine="63" fill="#F1F1F1" height="129.4844" id="SuperMutant" rx="2.5" ry="2.5" style="stroke:#181818;stroke-width:0.5;" width="139.0527" x="723.17" y="575.09"/><ellipse cx="745.6644" cy="591.09" fill="#ADD1B2" rx="11" ry="11" style="stroke:#181818;stroke-width:1.0;"/><path d="M748.6332,596.7306 Q748.0551,597.0275 747.4144,597.1681 Q746.7738,597.3244 746.0707,597.3244 Q743.5707,597.3244 742.2426,595.6838 Q740.9301,594.0275 740.9301,590.9025 Q740.9301,587.7775 742.2426,586.1213 Q743.5707,584.465 746.0707,584.465 Q746.7738,584.465 747.4144,584.6213 Q748.0707,584.7775 748.6332,585.0744 L748.6332,587.7931 Q748.0082,587.215 747.4144,586.9494 Q746.8207,586.6681 746.1957,586.6681 Q744.8519,586.6681 744.1644,587.7463 Q743.4769,588.8088 743.4769,590.9025 Q743.4769,592.9963 744.1644,594.0744 Q744.8519,595.1369 746.1957,595.1369 Q746.8207,595.1369 747.4144,594.8713 Q748.0082,594.59 748.6332,594.0119 L748.6332,596.7306 Z " fill="#000000"/><text fill="#000000" font-family="sans-serif" font-size="14" lengthAdjust="spacing" textLength="90.3984" x="761.3299" y="595.9367">SuperMutant</text><line style="stroke:#181818;stroke-width:0.5;" x1="724.17" x2="861.2227" y1="607.09" y2="607.09"/><rect fill="none" height="6" style="stroke:#C82930;stroke-width:1.0;" width="6" x="731.17" y="617.7384"/><text fill="#000000" font-family="sans-serif" font-size="14" lengthAdjust="spacing" textLength="50.7227" x="743.17" y="624.0851">iHp: int</text><rect fill="none" height="6" style="stroke:#C82930;stroke-width:1.0;" width="6" x="731.17" y="634.0353"/><text fill="#000000" font-family="sans-serif" font-size="14" lengthAdjust="spacing" textLength="90.9863" x="743.17" y="640.382">sType: string</text><line style="stroke:#181818;stroke-width:0.5;" x1="724.17" x2="861.2227" y1="647.6838" y2="647.6838"/><ellipse cx="734.17" cy="661.3322" fill="#84BE84" rx="3" ry="3" style="stroke:#038048;stroke-width:1.0;"/><text fill="#000000" font-family="sans-serif" font-size="14" lengthAdjust="spacing" textLength="101.3223" x="743.17" y="664.6789">SuperMutant()</text><ellipse cx="734.17" cy="677.6291" fill="#84BE84" rx="3" ry="3" style="stroke:#038048;stroke-width:1.0;"/><text fill="#000000" font-family="sans-serif" font-size="14" lengthAdjust="spacing" textLength="113.0527" x="743.17" y="680.9757">~SuperMutant()</text><ellipse cx="734.17" cy="693.9259" fill="#84BE84" rx="3" ry="3" style="stroke:#038048;stroke-width:1.0;"/><text fill="#000000" font-family="sans-serif" font-size="14" lengthAdjust="spacing" textLength="94.6572" x="743.17" y="697.2726">Attack(): void</text></g><!--link Character to AWeapon--><g id="link_Character_AWeapon"><path codeLine="70" d="M463.43,234.66 C453.52,259.95 445.2871,280.9628 435.6771,305.5128 " fill="none" id="Character-to-AWeapon" style="stroke:#181818;stroke-width:1.0;"/><polygon fill="#181818" points="433.49,311.1,440.4954,304.1773,435.3126,306.444,433.0458,301.2612,433.49,311.1" style="stroke:#181818;stroke-width:1.0;"/><text fill="#000000" font-family="sans-serif" font-size="13" lengthAdjust="spacing" textLength="29.7832" x="452.69" y="277.3369">uses</text></g><!--link Character to Enemy--><g id="link_Character_Enemy"><path codeLine="71" d="M552.75,234.66 C565.07,265.57 575.947,292.867 587.387,321.547 " fill="none" id="Character-to-Enemy" style="stroke:#181818;stroke-width:1.0;"/><polygon fill="#181818" points="589.61,327.12,589.9909,317.2785,587.7575,322.4758,582.5602,320.2425,589.61,327.12" style="stroke:#181818;stroke-width:1.0;"/><text fill="#000000" font-family="sans-serif" font-size="13" lengthAdjust="spacing" textLength="47.5757" x="569.69" y="277.3369">attacks</text></g><!--reverse link AWeapon to PlasmaRifle--><g id="link_AWeapon_PlasmaRifle"><path codeLine="72" d="M282.6129,506.6853 C255.1829,530.2353 239.36,543.82 212.88,566.55 " fill="none" id="AWeapon-backto-PlasmaRifle" style="stroke:#181818;stroke-width:1.0;"/><polygon fill="none" points="296.27,494.96,278.7044,502.1329,286.5213,511.2377,296.27,494.96" style="stroke:#181818;stroke-width:1.0;"/></g><!--reverse link AWeapon to PowerFist--><g id="link_AWeapon_PowerFist"><path codeLine="73" d="M397.6901,524.1473 C398.0401,544.4573 398.1,547.55 398.43,566.77 " fill="none" id="AWeapon-backto-PowerFist" style="stroke:#181818;stroke-width:1.0;"/><polygon fill="none" points="397.38,506.15,391.691,524.2507,403.6893,524.0439,397.38,506.15" style="stroke:#181818;stroke-width:1.0;"/></g><!--reverse link Enemy to RadScorpion--><g id="link_Enemy_RadScorpion"><path codeLine="74" d="M620.8342,508.0993 C620.5942,535.8293 620.48,548.5 620.25,574.75 " fill="none" id="Enemy-backto-RadScorpion" style="stroke:#181818;stroke-width:1.0;"/><polygon fill="none" points="620.99,490.1,614.8344,508.0474,626.834,508.1513,620.99,490.1" style="stroke:#181818;stroke-width:1.0;"/></g><!--reverse link Enemy to SuperMutant--><g id="link_Enemy_SuperMutant"><path codeLine="75" d="M692.5042,504.5268 C713.1942,532.2568 725.31,548.5 744.89,574.75 " fill="none" id="Enemy-backto-SuperMutant" style="stroke:#181818;stroke-width:1.0;"/><polygon fill="none" points="681.74,490.1,687.6952,508.1149,697.3131,500.9387,681.74,490.1" style="stroke:#181818;stroke-width:1.0;"/></g><!--SRC=[ZPHHIyCm4CVV-od2dZgreC90YWfbAdjHoYRuV7Rd35lRsAIJeUwpsoHDchRhzAMmtrtk_l-xPF3AHG698Ca6E2VH2mBBC_Bb4H8G_WGfXgJAeDbA4Hgn9ESY93GJ6jn12YiquDHKyFMXCydLPwoYUnFMFrSeP0j_x3HHD8gdLHl9JTqAwbOkZ8I0P2t9DgTBxyVpj8tfEqXJM1mn4ZScjARGQ3zHjMsDsafjeC4Q59ZaMooYsAgG53zAodnJpus0bdoVORfh1OxCeZC7Cq97i7MkwjQkwOmr7ldpZc6hj4hrrNvQ3ZMt2vBd-g9cBL42rbXlHwwwkuwu-gOmfsyRFBGGSaD6EeMed57lgbKPazvrg-3bXMhlrAzrx_i81kvAd7zYyK2v69Gc4uZCE2Ziwf2moRaMPcfRMHqm96eEoqMI5upQj_Z7Cfq3fbSV3JsNHScmU2m5PE9_tPm3fbiVzRerhp88RkrVJKXAZhmJrDSuhEV3FPDy_Hq4xhex0JDTJvzNq1c3Ynszlm00]--></g></svg>