<svg xmlns="http://www.w3.org/2000/svg" xmlns:xlink="http://www.w3.org/1999/xlink" contentStyleType="text/css" height="747px" preserveAspectRatio="none" style="width:504px;height:747px;background:#FFFFFF;" version="1.1" viewBox="0 0 504 747" width="504px" zoomAndPan="magnify"><defs/><g><!--class AssaultTerminator--><g id="elem_AssaultTerminator"><rect codeLine="1" fill="#F1F1F1" height="145.7813" id="AssaultTerminator" rx="2.5" ry="2.5" style="stroke:#181818;stroke-width:0.5;" width="227.6807" x="7" y="594.45"/><ellipse cx="52.2368" cy="610.45" fill="#ADD1B2" rx="11" ry="11" style="stroke:#181818;stroke-width:1.0;"/><path d="M55.2056,616.0906 Q54.6274,616.3875 53.9868,616.5281 Q53.3462,616.6844 52.6431,616.6844 Q50.1431,616.6844 48.8149,615.0438 Q47.5024,613.3875 47.5024,610.2625 Q47.5024,607.1375 48.8149,605.4813 Q50.1431,603.825 52.6431,603.825 Q53.3462,603.825 53.9868,603.9813 Q54.6431,604.1375 55.2056,604.4344 L55.2056,607.1531 Q54.5806,606.575 53.9868,606.3094 Q53.3931,606.0281 52.7681,606.0281 Q51.4243,606.0281 50.7368,607.1063 Q50.0493,608.1688 50.0493,610.2625 Q50.0493,612.3563 50.7368,613.4344 Q51.4243,614.4969 52.7681,614.4969 Q53.3931,614.4969 53.9868,614.2313 Q54.5806,613.95 55.2056,613.3719 L55.2056,616.0906 Z " fill="#000000"/><text fill="#000000" font-family="sans-serif" font-size="14" lengthAdjust="spacing" textLength="128.707" x="72.7368" y="615.2967">AssaultTerminator</text><line style="stroke:#181818;stroke-width:0.5;" x1="8" x2="233.6807" y1="626.45" y2="626.45"/><line style="stroke:#181818;stroke-width:0.5;" x1="8" x2="233.6807" y1="634.45" y2="634.45"/><ellipse cx="18" cy="648.0984" fill="#84BE84" rx="3" ry="3" style="stroke:#038048;stroke-width:1.0;"/><text fill="#000000" font-family="sans-serif" font-size="14" lengthAdjust="spacing" textLength="139.6309" x="27" y="651.4451">AssaultTerminator()</text><ellipse cx="18" cy="664.3953" fill="#84BE84" rx="3" ry="3" style="stroke:#038048;stroke-width:1.0;"/><text fill="#000000" font-family="sans-serif" font-size="14" lengthAdjust="spacing" textLength="151.3613" x="27" y="667.742">~AssaultTerminator()</text><ellipse cx="18" cy="680.6922" fill="#84BE84" rx="3" ry="3" style="stroke:#038048;stroke-width:1.0;"/><text fill="#000000" font-family="sans-serif" font-size="14" lengthAdjust="spacing" textLength="201.6807" x="27" y="684.0389">clone() const: ISpaceMarine*</text><ellipse cx="18" cy="696.9891" fill="#84BE84" rx="3" ry="3" style="stroke:#038048;stroke-width:1.0;"/><text fill="#000000" font-family="sans-serif" font-size="14" lengthAdjust="spacing" textLength="156.8506" x="27" y="700.3357">battleCry() const: void</text><ellipse cx="18" cy="713.2859" fill="#84BE84" rx="3" ry="3" style="stroke:#038048;stroke-width:1.0;"/><text fill="#000000" font-family="sans-serif" font-size="14" lengthAdjust="spacing" textLength="186.6211" x="27" y="716.6326">rangedAttack() const: void</text><ellipse cx="18" cy="729.5828" fill="#84BE84" rx="3" ry="3" style="stroke:#038048;stroke-width:1.0;"/><text fill="#000000" font-family="sans-serif" font-size="14" lengthAdjust="spacing" textLength="180.3936" x="27" y="732.9295">meleeAttack() const: void</text></g><!--class ISpaceMarine--><g id="elem_ISpaceMarine"><rect codeLine="10" fill="#F1F1F1" height="129.4844" id="ISpaceMarine" rx="2.5" ry="2.5" style="stroke:#181818;stroke-width:0.5;" width="227.6807" x="138" y="403.96"/><ellipse cx="200.2993" cy="419.96" fill="#ADD1B2" rx="11" ry="11" style="stroke:#181818;stroke-width:1.0;"/><path d="M203.2681,425.6006 Q202.6899,425.8975 202.0493,426.0381 Q201.4087,426.1944 200.7056,426.1944 Q198.2056,426.1944 196.8774,424.5538 Q195.5649,422.8975 195.5649,419.7725 Q195.5649,416.6475 196.8774,414.9913 Q198.2056,413.335 200.7056,413.335 Q201.4087,413.335 202.0493,413.4913 Q202.7056,413.6475 203.2681,413.9444 L203.2681,416.6631 Q202.6431,416.085 202.0493,415.8194 Q201.4556,415.5381 200.8306,415.5381 Q199.4868,415.5381 198.7993,416.6163 Q198.1118,417.6788 198.1118,419.7725 Q198.1118,421.8663 198.7993,422.9444 Q199.4868,424.0069 200.8306,424.0069 Q201.4556,424.0069 202.0493,423.7413 Q202.6431,423.46 203.2681,422.8819 L203.2681,425.6006 Z " fill="#000000"/><text fill="#000000" font-family="sans-serif" font-size="14" lengthAdjust="spacing" textLength="94.582" x="220.7993" y="424.8067">ISpaceMarine</text><line style="stroke:#181818;stroke-width:0.5;" x1="139" x2="364.6807" y1="435.96" y2="435.96"/><line style="stroke:#181818;stroke-width:0.5;" x1="139" x2="364.6807" y1="443.96" y2="443.96"/><ellipse cx="149" cy="457.6084" fill="#84BE84" rx="3" ry="3" style="stroke:#038048;stroke-width:1.0;"/><text fill="#000000" font-family="sans-serif" font-size="14" lengthAdjust="spacing" textLength="117.2363" x="158" y="460.9551">~ISpaceMarine()</text><ellipse cx="149" cy="473.9053" fill="#84BE84" rx="3" ry="3" style="stroke:#038048;stroke-width:1.0;"/><text fill="#000000" font-family="sans-serif" font-size="14" lengthAdjust="spacing" textLength="201.6807" x="158" y="477.252">clone() const: ISpaceMarine*</text><ellipse cx="149" cy="490.2022" fill="#84BE84" rx="3" ry="3" style="stroke:#038048;stroke-width:1.0;"/><text fill="#000000" font-family="sans-serif" font-size="14" lengthAdjust="spacing" textLength="156.8506" x="158" y="493.5489">battleCry() const: void</text><ellipse cx="149" cy="506.4991" fill="#84BE84" rx="3" ry="3" style="stroke:#038048;stroke-width:1.0;"/><text fill="#000000" font-family="sans-serif" font-size="14" lengthAdjust="spacing" textLength="186.6211" x="158" y="509.8457">rangedAttack() const: void</text><ellipse cx="149" cy="522.7959" fill="#84BE84" rx="3" ry="3" style="stroke:#038048;stroke-width:1.0;"/><text fill="#000000" font-family="sans-serif" font-size="14" lengthAdjust="spacing" textLength="180.3936" x="158" y="526.1426">meleeAttack() const: void</text></g><!--class ISquad--><g id="elem_ISquad"><rect codeLine="17" fill="#F1F1F1" height="113.1875" id="ISquad" rx="2.5" ry="2.5" style="stroke:#181818;stroke-width:0.5;" width="259.7822" x="121.95" y="7"/><ellipse cx="223.4705" cy="23" fill="#ADD1B2" rx="11" ry="11" style="stroke:#181818;stroke-width:1.0;"/><path d="M226.4393,28.6406 Q225.8611,28.9375 225.2205,29.0781 Q224.5799,29.2344 223.8768,29.2344 Q221.3768,29.2344 220.0486,27.5938 Q218.7361,25.9375 218.7361,22.8125 Q218.7361,19.6875 220.0486,18.0313 Q221.3768,16.375 223.8768,16.375 Q224.5799,16.375 225.2205,16.5313 Q225.8768,16.6875 226.4393,16.9844 L226.4393,19.7031 Q225.8143,19.125 225.2205,18.8594 Q224.6268,18.5781 224.0018,18.5781 Q222.658,18.5781 221.9705,19.6563 Q221.283,20.7188 221.283,22.8125 Q221.283,24.9063 221.9705,25.9844 Q222.658,27.0469 224.0018,27.0469 Q224.6268,27.0469 225.2205,26.7813 Q225.8143,26.5 226.4393,25.9219 L226.4393,28.6406 Z " fill="#000000"/><text fill="#000000" font-family="sans-serif" font-size="14" lengthAdjust="spacing" textLength="48.2412" x="243.9705" y="27.8467">ISquad</text><line style="stroke:#181818;stroke-width:0.5;" x1="122.95" x2="380.7322" y1="39" y2="39"/><line style="stroke:#181818;stroke-width:0.5;" x1="122.95" x2="380.7322" y1="47" y2="47"/><ellipse cx="132.95" cy="60.6484" fill="#84BE84" rx="3" ry="3" style="stroke:#038048;stroke-width:1.0;"/><text fill="#000000" font-family="sans-serif" font-size="14" lengthAdjust="spacing" textLength="70.8955" x="141.95" y="63.9951">~ISquad()</text><ellipse cx="132.95" cy="76.9453" fill="#84BE84" rx="3" ry="3" style="stroke:#038048;stroke-width:1.0;"/><text fill="#000000" font-family="sans-serif" font-size="14" lengthAdjust="spacing" textLength="145.2773" x="141.95" y="80.292">getCount() const: int</text><ellipse cx="132.95" cy="93.2422" fill="#84BE84" rx="3" ry="3" style="stroke:#038048;stroke-width:1.0;"/><text fill="#000000" font-family="sans-serif" font-size="14" lengthAdjust="spacing" textLength="233.7822" x="141.95" y="96.5889">getUnit(int) const: ISpaceMarine*</text><ellipse cx="132.95" cy="109.5391" fill="#84BE84" rx="3" ry="3" style="stroke:#038048;stroke-width:1.0;"/><text fill="#000000" font-family="sans-serif" font-size="14" lengthAdjust="spacing" textLength="178.3018" x="141.95" y="112.8857">push(ISpaceMarine *): int</text></g><!--class Squad--><g id="elem_Squad"><rect codeLine="23" fill="#F1F1F1" height="145.7813" id="Squad" rx="2.5" ry="2.5" style="stroke:#181818;stroke-width:0.5;" width="293.5039" x="105.09" y="181.18"/><ellipse cx="225.5358" cy="197.18" fill="#ADD1B2" rx="11" ry="11" style="stroke:#181818;stroke-width:1.0;"/><path d="M228.5046,202.8206 Q227.9264,203.1175 227.2858,203.2581 Q226.6452,203.4144 225.9421,203.4144 Q223.4421,203.4144 222.1139,201.7738 Q220.8014,200.1175 220.8014,196.9925 Q220.8014,193.8675 222.1139,192.2113 Q223.4421,190.555 225.9421,190.555 Q226.6452,190.555 227.2858,190.7113 Q227.9421,190.8675 228.5046,191.1644 L228.5046,193.8831 Q227.8796,193.305 227.2858,193.0394 Q226.6921,192.7581 226.0671,192.7581 Q224.7233,192.7581 224.0358,193.8363 Q223.3483,194.8988 223.3483,196.9925 Q223.3483,199.0863 224.0358,200.1644 Q224.7233,201.2269 226.0671,201.2269 Q226.6921,201.2269 227.2858,200.9613 Q227.8796,200.68 228.5046,200.1019 L228.5046,202.8206 Z " fill="#000000"/><text fill="#000000" font-family="sans-serif" font-size="14" lengthAdjust="spacing" textLength="44.1123" x="246.0358" y="202.0267">Squad</text><line style="stroke:#181818;stroke-width:0.5;" x1="106.09" x2="397.5939" y1="213.18" y2="213.18"/><rect fill="none" height="6" style="stroke:#C82930;stroke-width:1.0;" width="6" x="113.09" y="223.8284"/><text fill="#000000" font-family="sans-serif" font-size="14" lengthAdjust="spacing" textLength="267.5039" x="125.09" y="230.1751">NthUnit: std::vector&lt;ISpaceMarine *&gt;</text><line style="stroke:#181818;stroke-width:0.5;" x1="106.09" x2="397.5939" y1="237.4769" y2="237.4769"/><ellipse cx="116.09" cy="251.1253" fill="#84BE84" rx="3" ry="3" style="stroke:#038048;stroke-width:1.0;"/><text fill="#000000" font-family="sans-serif" font-size="14" lengthAdjust="spacing" textLength="55.0361" x="125.09" y="254.472">Squad()</text><ellipse cx="116.09" cy="267.4222" fill="#84BE84" rx="3" ry="3" style="stroke:#038048;stroke-width:1.0;"/><text fill="#000000" font-family="sans-serif" font-size="14" lengthAdjust="spacing" textLength="66.7666" x="125.09" y="270.7689">~Squad()</text><ellipse cx="116.09" cy="283.7191" fill="#84BE84" rx="3" ry="3" style="stroke:#038048;stroke-width:1.0;"/><text fill="#000000" font-family="sans-serif" font-size="14" lengthAdjust="spacing" textLength="145.2773" x="125.09" y="287.0657">getCount() const: int</text><ellipse cx="116.09" cy="300.0159" fill="#84BE84" rx="3" ry="3" style="stroke:#038048;stroke-width:1.0;"/><text fill="#000000" font-family="sans-serif" font-size="14" lengthAdjust="spacing" textLength="233.7822" x="125.09" y="303.3626">getUnit(int) const: ISpaceMarine*</text><ellipse cx="116.09" cy="316.3128" fill="#84BE84" rx="3" ry="3" style="stroke:#038048;stroke-width:1.0;"/><text fill="#000000" font-family="sans-serif" font-size="14" lengthAdjust="spacing" textLength="231.6357" x="125.09" y="319.6595">push(ISpaceMarine *NthUnit): int</text></g><!--class TacticalMarine--><g id="elem_TacticalMarine"><rect codeLine="31" fill="#F1F1F1" height="145.7813" id="TacticalMarine" rx="2.5" ry="2.5" style="stroke:#181818;stroke-width:0.5;" width="227.6807" x="270" y="594.45"/><ellipse cx="328.5088" cy="610.45" fill="#ADD1B2" rx="11" ry="11" style="stroke:#181818;stroke-width:1.0;"/><path d="M331.4775,616.0906 Q330.8994,616.3875 330.2588,616.5281 Q329.6182,616.6844 328.915,616.6844 Q326.415,616.6844 325.0869,615.0438 Q323.7744,613.3875 323.7744,610.2625 Q323.7744,607.1375 325.0869,605.4813 Q326.415,603.825 328.915,603.825 Q329.6182,603.825 330.2588,603.9813 Q330.915,604.1375 331.4775,604.4344 L331.4775,607.1531 Q330.8525,606.575 330.2588,606.3094 Q329.665,606.0281 329.04,606.0281 Q327.6963,606.0281 327.0088,607.1063 Q326.3213,608.1688 326.3213,610.2625 Q326.3213,612.3563 327.0088,613.4344 Q327.6963,614.4969 329.04,614.4969 Q329.665,614.4969 330.2588,614.2313 Q330.8525,613.95 331.4775,613.3719 L331.4775,616.0906 Z " fill="#000000"/><text fill="#000000" font-family="sans-serif" font-size="14" lengthAdjust="spacing" textLength="102.1631" x="349.0088" y="615.2967">TacticalMarine</text><line style="stroke:#181818;stroke-width:0.5;" x1="271" x2="496.6807" y1="626.45" y2="626.45"/><line style="stroke:#181818;stroke-width:0.5;" x1="271" x2="496.6807" y1="634.45" y2="634.45"/><ellipse cx="281" cy="648.0984" fill="#84BE84" rx="3" ry="3" style="stroke:#038048;stroke-width:1.0;"/><text fill="#000000" font-family="sans-serif" font-size="14" lengthAdjust="spacing" textLength="113.0869" x="290" y="651.4451">TacticalMarine()</text><ellipse cx="281" cy="664.3953" fill="#84BE84" rx="3" ry="3" style="stroke:#038048;stroke-width:1.0;"/><text fill="#000000" font-family="sans-serif" font-size="14" lengthAdjust="spacing" textLength="124.8174" x="290" y="667.742">~TacticalMarine()</text><ellipse cx="281" cy="680.6922" fill="#84BE84" rx="3" ry="3" style="stroke:#038048;stroke-width:1.0;"/><text fill="#000000" font-family="sans-serif" font-size="14" lengthAdjust="spacing" textLength="201.6807" x="290" y="684.0389">clone() const: ISpaceMarine*</text><ellipse cx="281" cy="696.9891" fill="#84BE84" rx="3" ry="3" style="stroke:#038048;stroke-width:1.0;"/><text fill="#000000" font-family="sans-serif" font-size="14" lengthAdjust="spacing" textLength="156.8506" x="290" y="700.3357">battleCry() const: void</text><ellipse cx="281" cy="713.2859" fill="#84BE84" rx="3" ry="3" style="stroke:#038048;stroke-width:1.0;"/><text fill="#000000" font-family="sans-serif" font-size="14" lengthAdjust="spacing" textLength="186.6211" x="290" y="716.6326">rangedAttack() const: void</text><ellipse cx="281" cy="729.5828" fill="#84BE84" rx="3" ry="3" style="stroke:#038048;stroke-width:1.0;"/><text fill="#000000" font-family="sans-serif" font-size="14" lengthAdjust="spacing" textLength="180.3936" x="290" y="732.9295">meleeAttack() const: void</text></g><!--reverse link ISpaceMarine to AssaultTerminator--><g id="link_ISpaceMarine_AssaultTerminator"><path codeLine="40" d="M199.1472,548.7981 C186.2972,568.0781 182.11,574.38 168.94,594.14 " fill="none" id="ISpaceMarine-backto-AssaultTerminator" style="stroke:#181818;stroke-width:1.0;"/><polygon fill="none" points="209.13,533.82,194.1545,545.4705,204.1399,552.1257,209.13,533.82" style="stroke:#181818;stroke-width:1.0;"/></g><!--reverse link ISpaceMarine to TacticalMarine--><g id="link_ISpaceMarine_TacticalMarine"><path codeLine="41" d="M304.9111,548.7658 C317.8511,568.0458 322.11,574.38 335.37,594.14 " fill="none" id="ISpaceMarine-backto-TacticalMarine" style="stroke:#181818;stroke-width:1.0;"/><polygon fill="none" points="294.88,533.82,299.9291,552.1095,309.893,545.4221,294.88,533.82" style="stroke:#181818;stroke-width:1.0;"/></g><!--reverse link ISquad to Squad--><g id="link_ISquad_Squad"><path codeLine="42" d="M251.84,138.63 C251.84,157.51 251.84,160.86 251.84,180.81 " fill="none" id="ISquad-backto-Squad" style="stroke:#181818;stroke-width:1.0;"/><polygon fill="none" points="251.84,120.63,245.84,138.63,257.84,138.63,251.84,120.63" style="stroke:#181818;stroke-width:1.0;"/></g><!--link Squad to ISpaceMarine--><g id="link_Squad_ISpaceMarine"><path codeLine="44" d="M251.84,327.36 C251.84,352.16 251.84,373.72 251.84,397.81 " fill="none" id="Squad-to-ISpaceMarine" style="stroke:#181818;stroke-width:1.0;"/><polygon fill="#181818" points="251.84,403.81,255.84,394.81,251.84,398.81,247.84,394.81,251.84,403.81" style="stroke:#181818;stroke-width:1.0;"/><text fill="#000000" font-family="sans-serif" font-size="13" lengthAdjust="spacing" textLength="55.0278" x="252.84" y="370.0269">contains</text></g><!--SRC=[nPF1JiCm38RlUOeSsw6yG3HDcdRY01V60nZNsYAoP4lSIGZeixEchTgmmcL2tEB_T-BFSO8MOfJh6A6slALmC0xO1_akfBoxreiowSrF1bhlg2WbUXTPo_kd8o0zG32E5YdX1PWjRSBRc7JsffB93E1sLAsP0LzpFza7iaIpxgSGc1gP5knxQARQZPYtKWwGfngg4Q-DUh0TySRNZiUTnl7WF3l3nIN-XVjOntsHNSAYxCuOYe-rbNpaVNkcbf4hhS-4bq4kyzshRZ9JnkQFWNkgRznRG3O8DfjjBWvyi-f_ZLnapIq_bBh-LJCvUG-YVpB9IaiXEaMfLVxeTLkVmRZu1G00]--></g></svg>